<?xml version="1.0" standalone="no"?>
<!DOCTYPE svg PUBLIC "-//W3C//DTD SVG 20010904//EN"
 "http://www.w3.org/TR/2001/REC-SVG-20010904/DTD/svg10.dtd">
<svg version="1.0" xmlns="http://www.w3.org/2000/svg"
 width="400.000000pt" height="400.000000pt" viewBox="0 0 400.000000 400.000000"
 preserveAspectRatio="xMidYMid meet">
<metadata>
Created by potrace 1.11, written by Peter Selinger 2001-2013
</metadata>
<g transform="translate(0.000000,400.000000) scale(0.100000,-0.100000)"
fill="#000000" stroke="none">
<path d="M2255 3893 c-210 -149 -335 -374 -379 -679 -14 -91 -15 -398 -3 -489
3 -16 7 -52 11 -80 20 -151 48 -285 106 -510 43 -167 67 -276 85 -380 17 -100
24 -289 14 -386 -14 -143 -33 -218 -94 -367 -24 -61 -47 -125 -50 -142 -12
-71 35 -150 102 -169 23 -7 41 -4 70 9 72 32 104 97 133 263 41 243 43 607 5
832 -8 43 -12 81 -10 83 15 15 97 -182 109 -264 4 -21 9 -52 12 -69 3 -16 7
-43 10 -60 9 -58 11 -411 3 -475 -13 -98 -12 -155 2 -178 32 -51 116 -52 170
-4 39 36 47 83 47 290 0 319 -47 550 -157 771 -43 88 -112 191 -155 230 -34
32 -33 41 9 70 53 36 181 169 232 241 106 151 144 267 139 424 -5 196 -57 300
-259 513 -124 132 -165 197 -174 280 -6 59 15 151 52 224 15 28 25 52 23 54
-2 2 -26 -12 -53 -32z m37 -608 c141 -186 186 -370 122 -502 -30 -62 -111
-139 -180 -171 -27 -13 -57 -28 -67 -33 -21 -11 -28 5 -47 105 -19 101 -17
382 4 491 2 11 7 43 11 70 5 28 9 52 10 55 0 3 4 23 8 45 16 81 15 80 49 48
16 -15 57 -64 90 -108z"/>
<path d="M1684 3410 c-89 -50 -150 -140 -179 -262 -29 -123 -17 -236 51 -498
31 -119 38 -163 38 -245 1 -89 -2 -105 -25 -150 -17 -32 -34 -51 -48 -53 -47
-7 -117 110 -148 248 -28 126 -23 377 11 555 8 39 13 71 11 73 -6 6 -89 -114
-125 -181 -111 -206 -123 -417 -38 -671 30 -91 89 -211 137 -276 94 -130 216
-193 322 -166 128 34 211 161 211 325 0 98 -15 160 -92 376 -50 141 -99 292
-104 320 -2 11 -7 38 -11 60 -4 22 -10 49 -12 60 -3 11 -6 65 -8 120 -3 110
15 245 44 333 11 31 19 58 17 59 -1 1 -24 -11 -52 -27z"/>
<path d="M2965 2915 c-89 -95 -136 -238 -139 -420 -1 -122 7 -205 29 -310 9
-38 19 -83 22 -99 l6 -30 -29 20 c-74 52 -191 86 -288 85 -61 0 -136 -15 -136
-27 0 -2 33 -70 74 -151 183 -365 196 -434 174 -916 -3 -54 -1 -61 25 -83 86
-74 241 32 262 179 6 45 6 204 0 252 -12 89 -50 198 -122 354 -24 52 -41 96
-39 99 7 6 56 -31 98 -75 74 -77 140 -215 154 -323 7 -52 23 -120 29 -120 2 0
16 5 30 12 32 14 69 90 91 183 18 78 25 256 12 325 -5 25 -10 54 -12 65 -20
108 -58 209 -131 355 -75 149 -86 201 -81 380 5 144 13 253 21 278 8 23 -8 12
-50 -33z"/>
<path d="M780 2422 c0 -5 7 -28 15 -51 31 -88 36 -189 18 -348 -13 -114 -18
-287 -9 -328 2 -11 7 -47 10 -80 15 -131 68 -287 140 -410 50 -86 189 -227
273 -279 120 -72 315 -136 396 -130 167 13 295 212 303 475 5 154 -37 272
-125 352 -62 56 -117 80 -189 83 -77 3 -120 -9 -252 -72 -3 -1 -6 28 -6 65 -2
89 -26 178 -75 279 -78 162 -151 207 -251 156 -15 -8 -28 -11 -29 -7 0 5 -3
33 -5 63 -8 94 -58 180 -124 215 -35 18 -90 29 -90 17z m318 -428 c75 -52 119
-267 76 -374 -18 -46 -69 -120 -83 -120 -22 0 -86 261 -95 382 -4 67 1 82 44
111 30 21 30 21 58 1z m492 -519 c123 -63 140 -201 45 -350 -49 -77 -54 -79
-116 -54 -95 37 -203 98 -254 143 -47 43 -49 46 -36 68 8 13 27 48 43 79 29
56 79 97 152 126 40 16 124 10 166 -12z"/>
<path d="M3225 931 c-16 -11 -56 -43 -87 -73 l-58 -53 128 -147 c70 -81 132
-147 138 -147 6 -1 18 7 27 17 15 16 12 21 -35 76 l-52 58 34 28 c26 21 39 26
55 20 150 -61 140 -59 164 -39 12 10 20 22 17 27 -3 5 -39 21 -80 36 l-75 28
6 47 c4 33 1 57 -11 79 -31 59 -113 80 -171 43z m104 -58 c11 -10 23 -31 25
-47 5 -25 -2 -36 -46 -78 l-52 -49 -46 52 c-51 58 -52 52 19 112 38 31 70 34
100 10z"/>
<path d="M614 838 c-43 -51 -96 -111 -117 -133 -62 -65 -63 -69 -17 -111 66
-61 105 -85 146 -91 33 -4 45 0 74 25 32 27 35 34 34 79 -1 46 1 50 21 47 60
-6 111 65 94 131 -8 29 -123 144 -145 145 -5 0 -46 -42 -90 -92z m143 -20 c38
-37 42 -69 13 -98 -31 -31 -65 -24 -113 24 l-23 23 35 41 c20 23 40 42 46 42
5 0 24 -14 42 -32z m-114 -134 c56 -55 49 -108 -17 -120 -20 -3 -36 4 -68 35
l-42 39 34 40 c19 22 40 41 45 41 6 1 27 -15 48 -35z"/>
<path d="M2877 694 l-107 -56 91 -179 c50 -98 93 -179 95 -179 2 0 51 24 109
52 86 43 105 57 105 75 0 12 -4 24 -9 27 -4 3 -43 -12 -85 -34 -42 -22 -81
-40 -86 -40 -10 0 -64 99 -58 105 2 1 32 17 68 35 79 39 73 34 65 59 -8 28
-15 27 -94 -13 l-68 -34 -19 36 c-36 72 -39 66 51 112 74 38 83 45 76 63 -4
12 -12 22 -17 24 -5 1 -57 -23 -117 -53z"/>
<path d="M969 653 c-12 -27 -48 -104 -80 -172 -33 -68 -59 -130 -59 -136 0
-12 21 -25 41 -25 6 0 24 29 40 65 17 36 36 65 42 65 7 -1 26 -9 42 -18 28
-16 30 -21 32 -82 0 -36 1 -74 2 -86 1 -17 36 -44 58 -44 3 0 3 41 1 90 -5 84
-4 90 14 90 37 0 86 31 102 65 40 83 11 135 -107 193 -47 23 -90 42 -96 42 -6
0 -20 -21 -32 -47z m143 -63 c38 -18 56 -65 37 -98 -23 -41 -57 -46 -122 -17
l-57 25 16 37 c9 21 21 50 27 65 12 29 11 29 99 -12z"/>
<path d="M2548 563 c-65 -20 -118 -39 -118 -43 0 -3 6 -15 14 -25 13 -17 17
-18 55 -5 23 7 43 11 45 9 2 -2 26 -76 53 -164 46 -151 50 -160 73 -157 13 1
26 5 29 7 2 3 -17 78 -43 166 -26 89 -44 165 -39 169 4 4 25 13 46 20 30 9 38
16 35 33 -2 12 -10 23 -18 24 -8 1 -68 -15 -132 -34z"/>
<path d="M1331 388 c-23 -90 -46 -176 -52 -192 -10 -32 0 -46 33 -46 18 0 23
14 76 215 44 166 45 167 30 176 -38 24 -44 12 -87 -153z"/>
<path d="M2301 501 c-11 -7 -12 -26 -7 -90 4 -44 3 -81 -1 -82 -4 0 -17 -2
-28 -4 -11 -2 -54 -7 -96 -10 l-76 -6 -8 73 c-5 40 -7 77 -7 81 4 14 -26 19
-46 8 -17 -9 -18 -16 -11 -63 4 -29 10 -80 13 -113 20 -226 20 -227 54 -223
30 3 28 -4 18 116 -3 34 -2 62 2 63 4 0 16 2 27 4 11 2 54 7 97 11 l76 6 8
-68 c4 -38 9 -72 10 -76 1 -5 2 -12 3 -18 0 -5 12 -10 26 -10 32 0 33 5 21
125 -5 44 -9 87 -11 95 -1 8 -6 47 -9 85 -11 107 -18 119 -55 96z"/>
<path d="M1640 470 c-75 -40 -119 -109 -120 -188 0 -48 30 -119 64 -151 32
-30 113 -58 161 -56 44 2 115 23 115 33 0 4 3 40 6 80 4 39 2 72 -2 72 -5 0
-32 3 -60 6 -41 5 -52 3 -57 -10 -8 -20 2 -47 17 -45 39 5 47 -1 42 -32 -2
-17 -7 -33 -10 -36 -2 -3 -29 -5 -58 -6 -66 -2 -112 27 -138 85 -60 135 89
265 211 183 39 -25 42 -26 60 -9 18 16 18 18 2 37 -48 54 -166 73 -233 37z"/>
</g>
</svg>
