<?xml version="1.0" encoding="UTF-8" standalone="no"?>
<svg width="240px" height="240px" viewBox="0 0 240 240" version="1.1" xmlns="http://www.w3.org/2000/svg" xmlns:xlink="http://www.w3.org/1999/xlink" xmlns:sketch="http://www.bohemiancoding.com/sketch/ns">
    <!-- Generator: Sketch 3.3.2 (12043) - http://www.bohemiancoding.com/sketch -->
    <title>so-banners</title>
    <desc>Created with Sketch.</desc>
    <defs></defs>
    <g id="Page-1" stroke="none" stroke-width="1" fill="none" fill-rule="evenodd" sketch:type="MSPage">
        <g id="Person" sketch:type="MSLayerGroup">
            <rect id="BG" fill="#E74C3C" sketch:type="MSShapeGroup" x="0" y="0" width="240" height="240"></rect>
            <g id="Group" transform="translate(52.000000, 29.000000)" stroke="#F7EBE8" stroke-width="4" sketch:type="MSShapeGroup">
                <path d="M68,103.289949 C87.882251,103.289949 104,68.2506268 104,36.4890449 C104,4.72746301 87.882251,0 68,0 C48.117749,0 32,4.72746301 32,36.4890449 C32,68.2506268 48.117749,103.289949 68,103.289949 Z" id="Oval-6"></path>
                <path d="M44.5,86.5 C44.5,86.5 13.949161,100.675673 6.18273306,111.972296 C-0.717505687,122.009007 0.5,150.5 0.5,150.5" id="Line" stroke-linecap="square"></path>
                <path d="M135.5,86.5 C135.5,86.5 104.949161,100.675673 97.1827331,111.972296 C90.2824943,122.009007 91.5,150.5 91.5,150.5" id="Line-Copy-3" stroke-linecap="square" transform="translate(113.458582, 118.500000) scale(-1, 1) translate(-113.458582, -118.500000) "></path>
                <path d="M0.5,152 L135,152" id="Line" stroke-linecap="square"></path>
            </g>
        </g>
    </g>
</svg>